<?xml version="1.0" standalone="no"?>
<!DOCTYPE svg PUBLIC "-//W3C//DTD SVG 20010904//EN"
 "http://www.w3.org/TR/2001/REC-SVG-20010904/DTD/svg10.dtd">
<svg version="1.0" xmlns="http://www.w3.org/2000/svg"
 width="200.000000pt" height="199.000000pt" viewBox="0 0 200.000000 199.000000"
 preserveAspectRatio="xMidYMid meet">
<metadata>
Created by potrace 1.16, written by Peter Selinger 2001-2019
</metadata>
<g transform="translate(0.000000,199.000000) scale(0.100000,-0.100000)"
fill="#000000" stroke="none">
<path d="M955 1898 c-11 -6 -32 -22 -46 -35 -16 -15 -51 -29 -90 -38 -35 -7
-72 -16 -81 -20 -22 -9 -23 10 -3 49 l15 29 -34 -6 c-53 -8 -182 -66 -249
-110 -155 -104 -265 -270 -284 -428 -8 -64 14 -142 37 -136 15 4 16 -7 12
-107 -3 -67 -1 -107 5 -101 5 6 21 27 36 47 31 42 94 94 104 85 3 -3 -9 -19
-27 -34 -49 -41 -90 -102 -90 -135 0 -37 35 -51 113 -46 31 2 57 3 57 1 0 -2
-20 -29 -45 -61 -29 -37 -45 -67 -45 -85 0 -33 32 -114 69 -172 l25 -40 8 32
c15 57 206 242 239 231 6 -2 -15 -23 -46 -47 -115 -87 -184 -175 -169 -215 3
-9 21 -18 40 -22 37 -7 144 0 184 11 20 6 15 -2 -28 -45 -72 -71 -70 -95 11
-126 98 -38 205 -58 309 -59 l96 0 6 -35 c18 -106 18 -127 2 -158 -19 -37 -17
-38 33 -12 42 21 86 68 96 102 4 13 18 35 32 49 14 15 39 48 56 75 27 40 41
50 87 66 53 17 100 56 100 82 0 6 16 28 36 47 80 75 174 254 174 330 0 35
-127 37 -258 3 -30 -8 -57 -13 -59 -10 -2 2 17 18 44 36 85 57 169 130 203
176 19 24 37 44 41 44 3 0 9 -18 13 -41 5 -29 12 -43 26 -46 17 -5 20 -14 20
-66 0 -59 0 -60 20 -42 11 10 31 42 45 71 22 46 25 66 25 161 0 177 -62 367
-154 477 -32 39 -32 39 -59 22 -37 -25 -42 -51 -18 -92 12 -19 21 -41 21 -48
0 -7 -18 -31 -40 -54 -27 -30 -48 -42 -67 -42 -15 0 -45 -4 -65 -9 -29 -7 -35
-6 -31 5 3 8 8 14 12 14 15 0 71 89 71 112 0 38 -19 48 -91 48 -56 0 -153 -19
-278 -56 -17 -5 -22 -4 -17 4 22 36 231 87 323 80 52 -5 53 -4 36 14 -17 19
-146 109 -175 122 -10 5 -10 7 0 12 13 6 16 32 6 59 -16 41 -291 109 -339 83z
m585 -707 c0 -5 -23 -14 -52 -20 -178 -39 -410 -129 -591 -232 -67 -38 -92
-44 -69 -16 18 21 277 151 382 192 86 33 269 83 313 84 9 1 17 -3 17 -8z"/>
</g>
</svg>
